<svg width="1600" height="560" viewBox="0 0 1600 560" fill="none" xmlns="http://www.w3.org/2000/svg">
  <defs>
    <linearGradient id="bg" x1="0" y1="0" x2="1600" y2="560" gradientUnits="userSpaceOnUse">
      <stop stop-color="#07111F"/>
      <stop offset="0.52" stop-color="#112A54"/>
      <stop offset="1" stop-color="#24124F"/>
    </linearGradient>
    <linearGradient id="orb" x1="291" y1="-124" x2="1024" y2="654" gradientUnits="userSpaceOnUse">
      <stop stop-color="#2FE4FF" stop-opacity="0.42"/>
      <stop offset="0.5" stop-color="#7867FF" stop-opacity="0.18"/>
      <stop offset="1" stop-color="#F05AD7" stop-opacity="0"/>
    </linearGradient>
    <linearGradient id="accent" x1="0" y1="0" x2="1" y2="1">
      <stop stop-color="#2FE4FF"/>
      <stop offset="0.52" stop-color="#7867FF"/>
      <stop offset="1" stop-color="#F05AD7"/>
    </linearGradient>
    <linearGradient id="screen" x1="908" y1="112" x2="1424" y2="448" gradientUnits="userSpaceOnUse">
      <stop stop-color="#FBFDFF"/>
      <stop offset="1" stop-color="#DCEAFF"/>
    </linearGradient>
    <filter id="shadow" x="-30" y="-30" width="1660" height="620" filterUnits="userSpaceOnUse" color-interpolation-filters="sRGB">
      <feDropShadow dx="0" dy="26" stdDeviation="28" flood-color="#020817" flood-opacity="0.42"/>
    </filter>
    <filter id="soft" x="-20" y="-20" width="240" height="180" filterUnits="userSpaceOnUse" color-interpolation-filters="sRGB">
      <feDropShadow dx="0" dy="18" stdDeviation="18" flood-color="#020817" flood-opacity="0.28"/>
    </filter>
    <style>
      text { font-family: Inter, "Segoe UI", Arial, sans-serif; }
      .title { font-size: 58px; font-weight: 800; letter-spacing: -1.2px; fill: #FFFFFF; }
      .subtitle { font-size: 23px; font-weight: 500; fill: #C3D4FF; }
      .chip { font-size: 14px; font-weight: 700; fill: #DCE8FF; letter-spacing: 0.8px; }
      .tag { font-size: 20px; font-weight: 700; fill: #F3F7FF; }
    </style>
  </defs>

  <rect width="1600" height="560" rx="36" fill="url(#bg)"/>
  <rect width="1600" height="560" rx="36" fill="url(#orb)"/>

  <g opacity="0.35">
    <circle cx="156" cy="126" r="2.5" fill="#54E6FF"/>
    <circle cx="306" cy="462" r="2" fill="#B28CFF"/>
    <circle cx="1328" cy="82" r="2.5" fill="#54E6FF"/>
    <circle cx="1482" cy="426" r="2" fill="#F05AD7"/>
    <path d="M102 290H248M1328 290H1508M682 88H780M174 88H232" stroke="#8AB6FF" stroke-opacity="0.38" stroke-width="2" stroke-linecap="round"/>
  </g>

  <g transform="translate(92 96)">
    <text class="title" x="0" y="58">Awesome Multimodal</text>
    <text class="title" x="0" y="126">GUI Agents</text>
    <text class="subtitle" x="4" y="178">A curated map of GUI grounding, screen understanding,</text>
    <text class="subtitle" x="4" y="211">computer-use agents, benchmarks, datasets, and tools.</text>

    <g transform="translate(4 260)">
      <rect x="0" y="0" width="142" height="42" rx="21" fill="#FFFFFF" fill-opacity="0.10" stroke="#7EA7FF" stroke-opacity="0.32"/>
      <circle cx="22" cy="21" r="6" fill="#2FE4FF"/>
      <text class="chip" x="38" y="27">VISION</text>
    </g>
    <g transform="translate(162 260)">
      <rect x="0" y="0" width="170" height="42" rx="21" fill="#FFFFFF" fill-opacity="0.10" stroke="#7EA7FF" stroke-opacity="0.32"/>
      <circle cx="22" cy="21" r="6" fill="#7867FF"/>
      <text class="chip" x="38" y="27">LANGUAGE</text>
    </g>
    <g transform="translate(350 260)">
      <rect x="0" y="0" width="136" height="42" rx="21" fill="#FFFFFF" fill-opacity="0.10" stroke="#7EA7FF" stroke-opacity="0.32"/>
      <circle cx="22" cy="21" r="6" fill="#F05AD7"/>
      <text class="chip" x="38" y="27">ACTION</text>
    </g>

    <g transform="translate(0 366)">
      <text class="tag" x="0" y="0">Web</text>
      <text class="tag" x="88" y="0">Mobile</text>
      <text class="tag" x="202" y="0">Desktop</text>
      <text class="tag" x="338" y="0">Automation</text>
    </g>
  </g>

  <g filter="url(#shadow)">
    <rect x="838" y="76" width="626" height="392" rx="32" fill="#0D2449" stroke="#56BFFF" stroke-opacity="0.45" stroke-width="2"/>
    <rect x="872" y="110" width="558" height="324" rx="24" fill="url(#screen)"/>
    <rect x="872" y="110" width="558" height="58" rx="24" fill="#EEF5FF"/>
    <circle cx="908" cy="139" r="8" fill="#5EA4FF"/>
    <circle cx="938" cy="139" r="8" fill="#7867FF"/>
    <circle cx="968" cy="139" r="8" fill="#F05AD7"/>
    <rect x="1190" y="128" width="168" height="20" rx="10" fill="#D0DDF5"/>

    <rect x="906" y="196" width="158" height="190" rx="20" fill="#FFFFFF" stroke="#CADAF4"/>
    <rect x="930" y="224" width="74" height="12" rx="6" fill="#92B3E8"/>
    <rect x="930" y="256" width="104" height="10" rx="5" fill="#C1D2F1"/>
    <rect x="930" y="286" width="84" height="10" rx="5" fill="#C1D2F1"/>
    <rect x="930" y="330" width="82" height="30" rx="15" fill="#43A7FF"/>

    <rect x="1094" y="196" width="202" height="190" rx="20" fill="#FFFFFF" stroke="#CADAF4"/>
    <rect x="1120" y="224" width="150" height="88" rx="18" fill="url(#accent)" opacity="0.92"/>
    <path d="M1134 296L1168 264L1198 294L1234 250L1272 312H1134V296Z" fill="#FFFFFF" fill-opacity="0.34"/>
    <rect x="1120" y="338" width="130" height="12" rx="6" fill="#AFC4EC"/>

    <rect x="1322" y="196" width="76" height="190" rx="20" fill="#FFFFFF" stroke="#CADAF4"/>
    <rect x="1342" y="226" width="36" height="12" rx="6" fill="#AFC4EC"/>
    <rect x="1342" y="258" width="36" height="50" rx="14" fill="#A784FF"/>
    <rect x="1342" y="338" width="12" height="28" rx="5" fill="#BFD0F4"/>
    <rect x="1362" y="318" width="12" height="48" rx="5" fill="#BFD0F4"/>
    <rect x="1382" y="292" width="12" height="74" rx="5" fill="#BFD0F4"/>
  </g>

  <g>
    <path d="M666 330C738 330 750 266 836 266C928 266 930 336 1026 336C1126 336 1138 268 1228 268C1304 268 1324 318 1394 318" stroke="url(#accent)" stroke-width="5" stroke-linecap="round" stroke-dasharray="12 14"/>
    <circle cx="836" cy="266" r="15" fill="#FFFFFF" stroke="#2FE4FF" stroke-width="6"/>
    <circle cx="1026" cy="336" r="15" fill="#FFFFFF" stroke="#7867FF" stroke-width="6"/>
    <circle cx="1228" cy="268" r="15" fill="#FFFFFF" stroke="#F05AD7" stroke-width="6"/>
    <circle cx="1394" cy="318" r="15" fill="#FFFFFF" stroke="#2FE4FF" stroke-width="6"/>
  </g>

  <g transform="translate(1042 252)">
    <path d="M0 0L82 52L46 63L70 112L43 126L18 76L-8 102L0 0Z" fill="#FFFFFF" stroke="#0F1F3D" stroke-width="6" stroke-linejoin="round"/>
  </g>

  <g filter="url(#soft)">
    <rect x="694" y="180" width="96" height="96" rx="24" fill="#10254A" stroke="#58D9FF" stroke-opacity="0.55" stroke-width="2"/>
    <path d="M724 228L742 210M724 228L742 246M760 210L742 228L760 246" stroke="#54E6FF" stroke-width="8" stroke-linecap="round" stroke-linejoin="round"/>
  </g>

  <g filter="url(#soft)">
    <rect x="704" y="358" width="122" height="74" rx="22" fill="#10254A" stroke="#9B83FF" stroke-opacity="0.55" stroke-width="2"/>
    <path d="M734 390H796M734 410H776" stroke="#C8D6FF" stroke-width="8" stroke-linecap="round"/>
    <circle cx="716" cy="390" r="5" fill="#9B83FF"/>
    <circle cx="716" cy="410" r="5" fill="#54E6FF"/>
  </g>
</svg>
